<?xml version="1.0" standalone="no"?><!DOCTYPE svg PUBLIC "-//W3C//DTD SVG 1.1//EN" "http://www.w3.org/Graphics/SVG/1.1/DTD/svg11.dtd"><svg t="1716172560209" class="icon" viewBox="0 0 1024 1024" version="1.1" xmlns="http://www.w3.org/2000/svg" p-id="2811" xmlns:xlink="http://www.w3.org/1999/xlink" width="200" height="200"><path d="M512 170.666667A348.891429 348.891429 0 0 0 162.620952 519.314286a35.84 35.84 0 0 0 71.436191 0 277.211429 277.211429 0 1 1 554.422857 0 35.84 35.84 0 0 0 71.43619 0A348.891429 348.891429 0 0 0 512 170.666667z" fill="#13227a" p-id="2812"></path><path d="M512 9.508571A500.540952 500.540952 0 0 0 91.428571 782.872381H931.352381A500.784762 500.784762 0 0 0 512 9.508571z m378.392381 701.927619H132.144762a430.32381 430.32381 0 0 1-16.335238-368.15238 432.030476 432.030476 0 0 1 91.91619-136.533334 430.32381 430.32381 0 0 1 470.552381-91.91619 428.617143 428.617143 0 0 1 262.095238 395.459047 426.179048 426.179048 0 0 1-49.980952 201.142857z" fill="#13227a" p-id="2813"></path><path d="M533.942857 487.619048a88.502857 88.502857 0 0 0-32.670476 6.339047l-77.287619-77.287619a35.59619 35.59619 0 0 0-50.468572 50.468572l77.28762 77.287619a89.234286 89.234286 0 0 0 83.139047 121.904762 89.478095 89.478095 0 1 0 0-178.956191z" fill="#13227a" p-id="2814"></path><path d="M819.931429 945.005714H177.737143a36.571429 36.571429 0 1 1 0-73.142857h642.194286a36.571429 36.571429 0 0 1 0 73.142857z" fill="#13227a" p-id="2815"></path></svg>